<?xml version="1.0" ?><!DOCTYPE svg  PUBLIC '-//W3C//DTD SVG 1.1//EN'  'http://www.w3.org/Graphics/SVG/1.1/DTD/svg11.dtd'><svg height="512px" style="enable-background:new 0 0 512 512;" version="1.1" viewBox="0 0 512 512" width="512px" xml:space="preserve" xmlns="http://www.w3.org/2000/svg" xmlns:xlink="http://www.w3.org/1999/xlink"><g id="bowling_ball_pines"><g><path d="M167.393,177.214C74.945,177.214,0,252.159,0,344.607S74.945,512,167.393,512c92.449,0,167.394-74.945,167.394-167.393    S259.842,177.214,167.393,177.214z M124.585,442.615c-12.768,0-23.117-10.037-23.117-22.418c0-12.381,10.35-22.416,23.117-22.416    c12.769,0,23.117,10.035,23.117,22.416C147.702,432.579,137.354,442.615,124.585,442.615z M137.406,260.986    c-10.566,5.734-22.8,3.628-27.321-4.706c-4.524-8.332,0.374-19.738,10.94-25.473c10.568-5.736,22.799-3.63,27.322,4.702    C152.871,243.844,147.974,255.247,137.406,260.986z M195.775,260.435c-5.187,9.209-17.675,12.012-27.895,6.257    c-10.22-5.754-14.297-17.887-9.111-27.095c5.188-9.21,17.678-12.013,27.896-6.258    C196.885,239.093,200.962,251.226,195.775,260.435z"/><g><path d="M349.518,76.46c6.907-1.667,28.317-5.959,46.147-0.253c1.219-10.698,3.413-22.813,6.834-36.769     c0.057-0.219,1.031-3.967,1.031-8.039c0-17.303-13.848-31.335-30.953-31.399c-17.106,0.064-30.954,14.096-30.954,31.399     c0,4.072,0.975,7.82,1.031,8.039C346.103,53.504,348.306,65.7,349.518,76.46z"/><path d="M395.33,111.645c-0.654-5.546-0.967-11.552-0.848-18.168c-6.615-1.419-22.075-3.611-43.807,0.264     c0.108,6.653-0.219,12.688-0.894,18.26C356.416,111.07,375.188,108.981,395.33,111.645z"/><path d="M398.859,129.412c-9.561-0.997-32.25-2.793-52.543-0.073c-9.001,31.969-28.872,51.066-30.592,106.17     c22.497,30.536,35.8,68.261,35.8,109.098c0,4.787-0.184,9.53-0.542,14.224h21.595h25.336c0-1.542,31.637-31.354,31.637-115.543     C429.55,182.163,408.28,162.797,398.859,129.412z"/><path d="M262.063,118.146c5.887-1.421,24.137-5.08,39.334-0.216c1.038-9.119,2.909-19.445,5.824-31.34     c0.049-0.187,0.879-3.381,0.879-6.852c0-14.749-11.803-26.709-26.383-26.764c-14.582,0.054-26.385,12.015-26.385,26.764     c0,3.471,0.83,6.666,0.88,6.852C259.15,98.579,261.027,108.975,262.063,118.146z"/><path d="M301.11,148.136c-0.558-4.728-0.823-9.847-0.723-15.486c-5.638-1.209-18.815-3.078-37.339,0.225     c0.092,5.67-0.188,10.815-0.762,15.564C267.941,147.646,283.941,145.866,301.11,148.136z"/><path d="M305.173,222.472c1.354-14.729,4.099-26.634,7.478-36.988c-3.224-7.161-6.276-14.21-8.532-22.204     c-8.148-0.85-27.487-2.38-44.785-0.063c-1.825,6.48-4.176,12.34-6.716,18.139C272.566,191.793,290.362,205.776,305.173,222.472z"/><path d="M443.782,118.146c5.888-1.421,24.137-5.08,39.335-0.216c1.039-9.119,2.909-19.445,5.824-31.34     c0.05-0.187,0.881-3.381,0.881-6.852c0-14.749-11.806-26.709-26.385-26.764c-14.581,0.054-26.384,12.015-26.384,26.764     c0,3.471,0.831,6.666,0.88,6.852C440.872,98.579,442.749,108.975,443.782,118.146z"/><path d="M482.831,148.136c-0.557-4.728-0.822-9.847-0.722-15.486c-5.638-1.209-18.815-3.078-37.34,0.225     c0.093,5.67-0.187,10.815-0.761,15.564C449.662,147.646,465.663,145.866,482.831,148.136z"/><path d="M485.84,163.28c-8.148-0.85-27.489-2.38-44.787-0.063c-2.162,7.684-5.063,14.495-8.146,21.368     c4.992,15.007,8.688,33.226,8.688,58.702c0,41.22-7.583,69.397-15.323,87.611c7.359,19.14,15.57,27.207,15.57,27.933h21.596     h21.596c0-1.314,26.967-26.724,26.967-98.486C512,208.244,493.871,191.737,485.84,163.28z"/></g></g></g></svg>