<?xml version="1.0" ?><!DOCTYPE svg  PUBLIC '-//W3C//DTD SVG 1.1//EN'  'http://www.w3.org/Graphics/SVG/1.1/DTD/svg11.dtd'><svg height="512px" id="Layer_1" style="enable-background:new 0 0 512 512;" version="1.1" viewBox="0 0 512 512" width="512px" xml:space="preserve" xmlns="http://www.w3.org/2000/svg" xmlns:xlink="http://www.w3.org/1999/xlink"><circle cx="256" cy="256" id="background_19_" r="256" style="fill:#ECF0F0;"/><path d="M255,112.566c-45,0.049-85.752,18.147-114.93,47.373C110.998,189.059,92,229.225,92,273.6  c0,0.13,0,0.259,0,0.387c0,14.737,3.242,29.009,6.939,42.572l155.434-42.37l-0.01-0.189H255V112.566z" style="fill:#C7A63E;"/><path d="M416.36,252L99,294.392v22.151l-0.061,0.016C98.958,316.628,99,316.7,99,316.771v0.223l0.195,0.012  c18.812,68.209,81.319,118.32,155.489,118.405c0.065,0,0.158,0.003,0.222,0.003c44.526,0,84.861-18.031,114.066-47.188  c29.267-29.218,47.383-69.613,47.383-114.238C416.355,273.887,416.36,252,416.36,252z" style="fill:#307D6D;"/><polygon points="254.75,251.387 256.167,251 254.75,251 " style="fill:#45B39C;"/><polygon points="254.363,251 254.75,251.387 254.75,251.387 254.75,251 " style="fill:#45B39C;"/><path d="M275.151,228l154.485-42.081c1.693-7.44-0.367-17.98-0.367-17.98  C375.443,109.602,273,196.759,273,196.759V228H275.151z" style="fill:#21313B;"/><polygon points="254.75,251.387 254.75,251.387 254.75,251.387 " style="fill:#45B39C;"/><path d="M416.36,252c-0.035-15-2.023-28.807-5.707-42.279L256.167,252H416.36z" style="fill:#E05B49;"/><path d="M416.36,252H256.167l-1.417-0.113L99.198,294.209c18.665,68.435,81.219,118.641,155.552,118.725  c0.064,0,0.125-0.059,0.189-0.059c44.528,0,84.845-18.061,114.05-47.219c29.267-29.22,47.375-69.128,47.375-113.753  C416.363,251.774,416.36,252,416.36,252z" style="fill:#45B39C;"/><path d="M256,89.965c-45,0.05-85.752,18.146-114.93,47.372C111.998,166.456,93,206.625,93,251  c0,0.128,0,0.257,0,0.387c0,14.736,2.744,29.007,6.441,42.571l155.932-42.071l-0.01,0.113H256V89.965z" style="fill:#EFC84A;"/><path d="M275.151,211l154.485-42.622C399.941,59.759,350.08,49.451,273.557,49.451  c-0.062,0-0.557-0.168-0.557-0.168V211H275.151z" style="fill:#334D5C;"/><path d="M92.519,251c0,0.128-0.005,0.257-0.005,0.387c0,14.736,2.986,29.103,6.684,42.665  C117.863,362.49,180.417,413,254.75,413c0.064,0,0.125,0,0.189,0c22.76,0,44.413-4.815,64.05-13.314l-192.165-246.45  C106.012,180.349,92.604,214.2,92.519,251z" style="opacity:0.3;fill:#5D5D5D;"/><g/><g/><g/><g/><g/><g/><g/><g/><g/><g/><g/><g/><g/><g/><g/></svg>